<svg width="168" height="65" viewBox="0 0 168 65" fill="none" xmlns="http://www.w3.org/2000/svg">
<path d="M0.248 2.2V1.048H0.664C0.642667 1.048 1.66667 1.06933 3.736 1.112C5.50667 1.13333 7.27733 1.13333 9.048 1.112L12.088 1.048H12.504V2.2V3.352H10.776H9.048V10.264C9.06933 15.0427 9.112 17.5813 9.176 17.88C9.176 17.9227 9.19733 18.008 9.24 18.136C9.41067 18.9467 9.76267 19.576 10.296 20.024C11.1707 20.728 12.4827 21.0693 14.232 21.048C16.2587 20.984 17.7627 20.4613 18.744 19.48C19.3627 18.84 19.7893 17.9333 20.024 16.76C20.0453 16.568 20.0667 14.2747 20.088 9.88V3.352H18.36H16.632V2.2V1.048H16.952L19.288 1.112C20.6533 1.13333 22.0187 1.13333 23.384 1.112C24.9627 1.06933 25.7413 1.048 25.72 1.048H26.04V2.2V3.352H24.312H22.584V9.72C22.584 14.0507 22.5733 16.3013 22.552 16.472C22.424 17.944 21.9227 19.2347 21.048 20.344C20.088 21.5813 18.7653 22.4347 17.08 22.904C16.1413 23.1813 15.1707 23.3307 14.168 23.352C12.0773 23.3947 10.264 23.1067 8.728 22.488C8.216 22.296 7.68267 22.0293 7.128 21.688C6.36 21.2187 5.70933 20.6427 5.176 19.96C4.344 18.872 3.864 17.6773 3.736 16.376C3.71467 16.2267 3.704 13.9973 3.704 9.688V3.352H1.976H0.248V2.2ZM31.4085 8.728C33.4992 8.64267 34.5125 8.6 34.4485 8.6H34.6405V9.784V10.968L34.8965 10.712C35.4298 10.1573 36.0698 9.70933 36.8165 9.368C37.4352 9.02667 38.1605 8.792 38.9925 8.664C39.5258 8.57867 40.2618 8.568 41.2005 8.632C41.2858 8.65333 41.3605 8.664 41.4245 8.664C43.0672 8.856 44.1765 9.54933 44.7525 10.744C44.8805 11 44.9978 11.3947 45.1045 11.928C45.1472 12.1627 45.1792 13.688 45.2005 16.504V20.696H46.3205H47.4085V21.848V23H47.1205L44.8805 22.936C43.6005 22.9147 42.3205 22.9147 41.0405 22.936C39.5472 22.9787 38.8112 23 38.8325 23H38.5445V21.848V20.696H39.6645H40.7525V16.696C40.7525 13.9227 40.7418 12.472 40.7205 12.344C40.6138 11.256 40.1552 10.6587 39.3445 10.552C39.1952 10.552 39.0245 10.552 38.8325 10.552C37.8085 10.616 36.9338 11.0107 36.2085 11.736C35.6965 12.248 35.3552 12.8133 35.1845 13.432C35.0565 13.7947 34.9925 14.712 34.9925 16.184C34.9925 16.44 34.9925 16.888 34.9925 17.528V20.696H36.1125H37.2005V21.848V23H36.9125L34.6725 22.936C33.3925 22.9147 32.1125 22.9147 30.8325 22.936C29.3392 22.9787 28.6032 23 28.6245 23H28.3365V21.848V20.696H29.4565H30.5445V16.28C30.5445 13.336 30.5232 11.8107 30.4805 11.704C30.4165 11.4907 30.2778 11.352 30.0645 11.288C29.7658 11.2027 29.3285 11.16 28.7525 11.16H28.3365V10.008V8.856H28.4325C28.3258 8.856 29.3178 8.81333 31.4085 8.728ZM52.294 0.792C52.3367 0.770665 52.5287 0.759998 52.87 0.759998C53.2327 0.802666 53.4673 0.834666 53.574 0.855999C54.406 1.112 55.0033 1.60267 55.366 2.328C55.558 2.73333 55.654 3.128 55.654 3.512C55.654 3.91733 55.558 4.312 55.366 4.696C55.0033 5.44267 54.406 5.944 53.574 6.2C53.382 6.24267 53.1153 6.264 52.774 6.264C52.4113 6.264 52.1447 6.24267 51.974 6.2C51.1207 5.944 50.5127 5.44267 50.15 4.696C49.9793 4.35467 49.894 3.96 49.894 3.512C49.894 3.21333 49.9047 3 49.926 2.872C50.0327 2.488 50.2247 2.12533 50.502 1.784C50.95 1.25067 51.5473 0.919999 52.294 0.792ZM52.07 8.728C54.2033 8.64267 55.2273 8.6 55.142 8.6H55.334V14.648V20.696H56.326H57.318V21.848V23H57.03L54.982 22.936C53.8087 22.9147 52.5927 22.9147 51.334 22.936L49.158 23H48.87V21.848V20.696H49.99H51.078V16.312C51.078 13.3467 51.0673 11.8213 51.046 11.736C50.9607 11.48 50.822 11.3307 50.63 11.288C50.3313 11.2027 49.9047 11.16 49.35 11.16H48.966V10.008V8.856H49.062L52.07 8.728ZM58.7688 9.944V8.792H59.0568L61.0408 8.856C62.1714 8.87733 63.3874 8.87733 64.6888 8.856L66.9288 8.792H67.2168V9.944V11.096H66.5128H65.8088L67.2488 14.36C68.2088 16.6 68.6888 17.7093 68.6888 17.688C68.7101 17.7307 68.7528 17.688 68.8168 17.56C68.9021 17.3893 69.3608 16.3547 70.1928 14.456L71.6648 11.096H70.9608H70.2568V9.944V8.792H70.4808L72.2088 8.856C73.1901 8.87733 74.0968 8.87733 74.9288 8.856L76.3688 8.792H76.5608V9.944V11.096H75.3768H74.1928L71.6648 16.856C70.1928 20.2693 69.3288 22.2213 69.0728 22.712C68.9661 22.8827 68.7954 23.0107 68.5608 23.096C68.3474 23.16 67.8354 23.1707 67.0248 23.128C66.8968 23.128 66.8114 23.1173 66.7688 23.096C66.5341 23.0107 66.3634 22.8827 66.2568 22.712C66.0008 22.2213 65.1368 20.2693 63.6648 16.856L61.1688 11.096H59.9528H58.7688V9.944ZM85.5663 8.536L87.7103 8.568C89.2249 8.78133 90.4409 9.31467 91.3583 10.168C92.4249 11.2347 93.0329 12.6853 93.1823 14.52C93.2463 15.3093 93.1503 15.7893 92.8943 15.96C92.8089 16.0027 91.1876 16.024 88.0303 16.024H83.3263V16.664C83.3903 18.1573 83.6889 19.2027 84.2223 19.8C84.2649 19.8427 84.3183 19.896 84.3823 19.96C85.0009 20.5787 85.9396 20.952 87.1983 21.08C87.6889 21.1227 88.0943 21.112 88.4143 21.048C89.5663 20.8773 90.3769 20.3013 90.8463 19.32C90.8676 19.256 90.8889 19.2027 90.9103 19.16C91.0169 18.8827 91.1876 18.7333 91.4223 18.712C91.5289 18.6907 91.7423 18.68 92.0623 18.68C92.5316 18.68 92.8089 18.7013 92.8943 18.744C93.1503 18.872 93.2463 19.096 93.1823 19.416C93.0543 19.864 92.8409 20.28 92.5423 20.664C91.5823 21.9867 90.0783 22.808 88.0303 23.128C87.4329 23.2133 86.6329 23.224 85.6302 23.16C85.5663 23.1387 85.5023 23.128 85.4383 23.128C81.9823 22.68 79.7743 21.0587 78.8143 18.264C78.6863 17.8373 78.5796 17.3893 78.4943 16.92C78.4089 16.3227 78.4089 15.6187 78.4943 14.808C78.4943 14.744 78.4943 14.6907 78.4943 14.648C78.7289 13.2613 79.2303 12.0987 79.9983 11.16C80.2756 10.776 80.6809 10.392 81.2143 10.008C82.3876 9.15467 83.8383 8.664 85.5663 8.536ZM87.0063 10.52C86.6863 10.456 86.2809 10.4453 85.7903 10.488C84.8303 10.6587 84.1583 11.1387 83.7743 11.928C83.5609 12.376 83.4223 13.0267 83.3583 13.88V14.168H86.3343H89.3423L89.3103 14.008C89.0969 12.024 88.3289 10.8613 87.0063 10.52ZM98.0253 8.728C100.031 8.64267 101.012 8.6 100.969 8.6H101.161V9.432L101.193 10.264L101.289 10.104C101.695 9.50667 102.239 9.08 102.921 8.824C103.967 8.44 105.119 8.504 106.377 9.016C106.655 9.10133 106.9 9.21867 107.113 9.368C107.839 9.85867 108.265 10.4667 108.393 11.192C108.479 11.576 108.457 11.9387 108.329 12.28C108.159 12.9413 107.775 13.4213 107.177 13.72C106.815 13.8693 106.452 13.944 106.089 13.944C105.684 13.944 105.321 13.8693 105.001 13.72C104.383 13.4213 103.977 12.9413 103.785 12.28C103.764 12.1733 103.753 11.9493 103.753 11.608C103.753 11.2667 103.775 11.0213 103.817 10.872C103.903 10.68 103.924 10.584 103.881 10.584C103.817 10.52 103.625 10.584 103.305 10.776C102.985 10.9253 102.697 11.1813 102.441 11.544C102.036 12.184 101.748 13.1227 101.577 14.36C101.556 14.5733 101.535 15.704 101.513 17.752V20.696H102.889H104.297V21.848V23H103.945L101.513 22.936C100.105 22.9147 98.7719 22.9147 97.5133 22.936C96.0839 22.9787 95.3586 23 95.3372 23H95.0493V21.848V20.696H96.1693H97.2573V16.28C97.2573 13.336 97.2359 11.8107 97.1933 11.704C97.1293 11.4907 96.9906 11.352 96.7773 11.288C96.4786 11.2027 96.0413 11.16 95.4653 11.16H95.0493V10.008V8.856H95.1453L98.0253 8.728ZM115.55 8.536H117.566C118.291 8.6 118.899 8.728 119.39 8.92L119.614 8.984L120.19 8.76L120.766 8.504H121.118C121.352 8.504 121.502 8.52533 121.566 8.568C121.694 8.65333 121.768 8.86667 121.79 9.208C121.79 9.4 121.79 9.85867 121.79 10.584C121.79 11.8 121.715 12.4613 121.566 12.568C121.48 12.6107 121.171 12.632 120.638 12.632C120.104 12.632 119.795 12.6107 119.71 12.568C119.56 12.4613 119.486 12.3227 119.486 12.152C119.486 11.4907 119.176 11.0107 118.558 10.712C118.046 10.456 117.352 10.328 116.478 10.328C115.646 10.328 114.995 10.424 114.526 10.616C113.971 10.8507 113.694 11.2453 113.694 11.8C113.694 11.8853 113.715 11.9813 113.758 12.088C113.822 12.3653 114.056 12.6 114.462 12.792C114.76 12.9627 115.518 13.1653 116.734 13.4C117.843 13.592 118.622 13.752 119.07 13.88C120.35 14.328 121.32 15.032 121.982 15.992C122.28 16.4827 122.494 16.9627 122.622 17.432C122.664 17.6453 122.686 17.9653 122.686 18.392C122.686 18.84 122.664 19.1707 122.622 19.384C122.344 20.8773 121.534 21.9333 120.19 22.552C119.614 22.8293 118.899 23.0213 118.046 23.128C117.896 23.1493 117.47 23.16 116.766 23.16C115.998 23.16 115.315 23.096 114.718 22.968C114.334 22.8613 113.96 22.7227 113.598 22.552L113.246 22.392L112.478 22.776L111.678 23.192H111.358C111.102 23.192 110.942 23.1707 110.878 23.128C110.75 23.064 110.675 22.872 110.654 22.552C110.654 22.3387 110.654 21.7307 110.654 20.728C110.654 19.256 110.718 18.4667 110.846 18.36C110.952 18.296 111.262 18.264 111.774 18.264C112.328 18.264 112.648 18.2853 112.734 18.328C112.798 18.3707 112.904 18.5627 113.054 18.904C113.459 20.0773 114.248 20.8027 115.422 21.08C116.382 21.336 117.363 21.3253 118.366 21.048C119.112 20.792 119.539 20.3547 119.646 19.736C119.774 18.968 119.379 18.392 118.462 18.008C118.12 17.8587 117.459 17.6987 116.478 17.528C115.496 17.3573 114.952 17.2507 114.846 17.208C112.84 16.7387 111.528 15.7787 110.91 14.328C110.846 14.1573 110.792 13.9867 110.75 13.816C110.707 13.624 110.686 13.3253 110.686 12.92C110.686 12.5147 110.696 12.248 110.718 12.12C110.995 10.776 111.731 9.80533 112.926 9.208C113.651 8.824 114.526 8.6 115.55 8.536ZM128.513 0.792C128.555 0.770665 128.747 0.759998 129.089 0.759998C129.451 0.802666 129.686 0.834666 129.793 0.855999C130.625 1.112 131.222 1.60267 131.585 2.328C131.777 2.73333 131.873 3.128 131.873 3.512C131.873 3.91733 131.777 4.312 131.585 4.696C131.222 5.44267 130.625 5.944 129.793 6.2C129.601 6.24267 129.334 6.264 128.993 6.264C128.63 6.264 128.363 6.24267 128.193 6.2C127.339 5.944 126.731 5.44267 126.369 4.696C126.198 4.35467 126.113 3.96 126.113 3.512C126.113 3.21333 126.123 3 126.145 2.872C126.251 2.488 126.443 2.12533 126.721 1.784C127.169 1.25067 127.766 0.919999 128.513 0.792ZM128.289 8.728C130.422 8.64267 131.446 8.6 131.361 8.6H131.553V14.648V20.696H132.545H133.537V21.848V23H133.249L131.201 22.936C130.027 22.9147 128.811 22.9147 127.553 22.936L125.377 23H125.089V21.848V20.696H126.209H127.297V16.312C127.297 13.3467 127.286 11.8213 127.265 11.736C127.179 11.48 127.041 11.3307 126.849 11.288C126.55 11.2027 126.123 11.16 125.569 11.16H125.185V10.008V8.856H125.281L128.289 8.728ZM139.212 2.872V2.68H140.364H141.516V5.72V8.792H143.66H145.804V9.944V11.096H143.66H141.516V15.448C141.537 18.456 141.58 20.056 141.644 20.248C141.644 20.2693 141.676 20.3333 141.74 20.44C141.868 20.696 142.06 20.888 142.316 21.016C142.422 21.0587 142.582 21.08 142.796 21.08C143.009 21.08 143.148 21.0587 143.212 21.016C143.553 20.888 143.82 20.4933 144.012 19.832C144.054 19.6827 144.086 19.224 144.108 18.456V17.336H145.26H146.412V18.36C146.412 19.256 146.337 19.9173 146.188 20.344C145.953 21.048 145.537 21.656 144.94 22.168C144.236 22.7013 143.468 23.032 142.635 23.16C142.444 23.1813 142.113 23.192 141.644 23.192C140.769 23.1707 140.054 23.0427 139.5 22.808C138.796 22.5733 138.22 22.1467 137.772 21.528C137.43 21.0587 137.206 20.4507 137.1 19.704C137.078 19.5973 137.068 18.1147 137.068 15.256V11.096H135.98H134.86V10.136V9.144H135.148C135.83 9.08 136.438 8.84533 136.972 8.44C138.06 7.58667 138.753 6.24267 139.052 4.408C139.158 3.832 139.212 3.32 139.212 2.872ZM149.332 9.944V8.792H149.588L151.54 8.856C152.692 8.87733 153.919 8.87733 155.22 8.856L157.46 8.792H157.748V9.944V11.096H157.044C156.596 11.096 156.372 11.1173 156.372 11.16L157.844 14.456C158.783 16.568 159.273 17.624 159.316 17.624L162.164 11.16C162.164 11.1173 161.94 11.096 161.492 11.096H160.788V9.944V8.792H161.012L162.74 8.856C163.721 8.87733 164.628 8.87733 165.46 8.856C166.377 8.81333 166.847 8.792 166.868 8.792H167.06V9.944V11.096H165.876H164.692L161.62 18.136C159.401 23.0853 158.292 25.5707 158.292 25.592C157.46 27.2347 156.276 28.3547 154.74 28.952C153.567 29.464 152.489 29.56 151.508 29.24C150.42 28.856 149.705 28.12 149.364 27.032C149.236 26.648 149.183 26.264 149.204 25.88C149.225 25.3253 149.428 24.8453 149.812 24.44C150.089 24.184 150.409 24.0027 150.772 23.896C150.964 23.832 151.188 23.8 151.444 23.8C151.7 23.8 151.924 23.832 152.116 23.896C152.479 24.0027 152.799 24.184 153.076 24.44C153.417 24.824 153.62 25.2827 153.684 25.816V26.04H152.596H151.508V26.232C151.572 26.8507 151.849 27.2453 152.34 27.416C152.745 27.544 153.3 27.4587 154.004 27.16C154.857 26.7547 155.476 26.1573 155.86 25.368L156.916 23C156.916 22.9787 156.041 20.984 154.292 17.016L151.7 11.096H150.516H149.332V9.944ZM0.248 37.2V36.048H4.728H9.24L9.4 36.144C9.61333 36.2507 9.79467 36.496 9.944 36.88L13.304 44.88L16.472 52.432L19.64 44.88L23 36.88C23.1493 36.496 23.3413 36.2507 23.576 36.144L23.736 36.048H28.184H32.664V37.2V38.352H30.936H29.208V47.024V55.696H30.936H32.664V56.848V58H32.28C32.3013 58 31.32 57.9787 29.336 57.936C27.6507 57.9147 25.9653 57.9147 24.28 57.936C22.296 57.9787 21.3147 58 21.336 58H20.952V56.848V55.696H22.68H24.408V47.152L24.376 38.672C24.2693 38.8853 22.9467 42.0427 20.408 48.144C17.7627 54.416 16.4187 57.5733 16.376 57.616C16.2693 57.7867 16.1093 57.904 15.896 57.968C15.6827 58.032 15.288 58.0427 14.712 58C14.6267 58 14.5627 57.9893 14.52 57.968C14.3067 57.904 14.1467 57.7867 14.04 57.616C13.9973 57.5733 12.6853 54.48 10.104 48.336C7.52267 42.1493 6.232 39.0667 6.232 39.088L6.2 47.312V47.376V55.696H7.928H9.656V56.848V58H9.336C9.35733 58 8.57867 57.9787 7 57.936C5.63467 57.9147 4.26933 57.9147 2.904 57.936C1.32533 57.9787 0.546667 58 0.568 58H0.248V56.848V55.696H1.976H3.704V47.024V38.352H1.976H0.248V37.2ZM41.1375 43.536L43.7615 43.568C46.5562 43.888 48.3375 44.944 49.1055 46.736C49.1908 46.928 49.2548 47.12 49.2975 47.312L49.3935 47.664L49.4255 51.504C49.4255 54 49.4468 55.2907 49.4895 55.376C49.6602 55.5467 50.1188 55.6533 50.8655 55.696C51.2068 55.696 51.4522 55.7387 51.6015 55.824C51.7295 55.952 51.7935 56.2933 51.7935 56.848C51.7935 57.4027 51.7188 57.744 51.5695 57.872C51.3562 57.9573 50.6735 58 49.5215 58C48.2415 57.9787 47.3988 57.904 46.9935 57.776C46.3322 57.5627 45.9055 57.232 45.7135 56.784C45.6282 56.6133 45.5855 56.5173 45.5855 56.496C45.5855 56.4747 45.4895 56.528 45.2975 56.656C44.3588 57.4027 43.1002 57.8933 41.5215 58.128C40.6895 58.2133 40.0388 58.224 39.5695 58.16C37.6495 57.9467 36.2948 57.1573 35.5055 55.792C35.3135 55.472 35.1748 55.1413 35.0895 54.8C35.0255 54.5653 34.9935 54.2667 34.9935 53.904C34.9935 53.392 35.0788 52.9547 35.2495 52.592C35.5055 52.08 35.8575 51.6427 36.3055 51.28C37.0522 50.704 38.0015 50.256 39.1535 49.936C40.5615 49.5093 42.2362 49.2533 44.1775 49.168L44.9775 49.136V48.56L44.9455 47.728V47.696C44.8175 46.8 44.3802 46.1707 43.6335 45.808C43.1642 45.5733 42.5562 45.456 41.8095 45.456C40.9348 45.456 40.4762 45.4773 40.4335 45.52L40.5295 45.712C40.7002 46.0107 40.7748 46.3947 40.7535 46.864C40.7535 47.2053 40.7322 47.4507 40.6895 47.6C40.5615 47.984 40.3695 48.304 40.1135 48.56C39.8362 48.8373 39.5055 49.04 39.1215 49.168C38.9508 49.2107 38.7055 49.232 38.3855 49.232C38.0655 49.232 37.8308 49.2107 37.6815 49.168C37.2762 49.04 36.9348 48.8373 36.6575 48.56C36.4015 48.304 36.2095 47.984 36.0815 47.6C36.0388 47.4507 36.0175 47.2053 36.0175 46.864C36.0175 46.5227 36.0388 46.2773 36.0815 46.128C36.4015 44.9547 37.4362 44.176 39.1855 43.792C39.7615 43.664 40.4122 43.5787 41.1375 43.536ZM44.9775 52.592C44.9775 51.4827 44.9668 50.928 44.9455 50.928C44.9242 50.928 44.8708 50.9387 44.7855 50.96C43.5268 51.0453 42.4282 51.2693 41.4895 51.632C40.4868 52.0373 39.8575 52.6027 39.6015 53.328C39.4948 53.6267 39.4842 54.0107 39.5695 54.48C39.7828 55.3333 40.2735 55.888 41.0415 56.144C41.0842 56.1653 41.1375 56.1867 41.2015 56.208C41.9908 56.336 42.8228 56.176 43.6975 55.728C43.7615 55.7067 43.8255 55.6747 43.8895 55.632C44.2948 55.376 44.5828 55.088 44.7535 54.768C44.8815 54.512 44.9562 54.0853 44.9775 53.488V52.592ZM66.8845 43.472L67.4925 43.44H67.5245C67.8445 43.4613 68.0578 43.4933 68.1645 43.536C68.6338 43.6853 69.0072 43.984 69.2845 44.432C69.5832 44.8587 69.7112 45.3173 69.6685 45.808C69.6472 46.1493 69.5405 46.4587 69.3485 46.736C69.0285 47.2693 68.5165 47.5147 67.8125 47.472C67.2152 47.4293 66.7565 47.1947 66.4365 46.768L66.3725 46.672L66.4365 46.864C66.5645 47.2267 66.6285 47.4187 66.6285 47.44C66.6925 47.7173 66.7245 48.0587 66.7245 48.464C66.7245 48.8693 66.7032 49.1893 66.6605 49.424C66.4685 50.128 66.1378 50.768 65.6685 51.344C65.1565 51.9627 64.4098 52.4533 63.4285 52.816C62.9378 53.008 62.3618 53.1467 61.7005 53.232C59.7592 53.5093 58.0418 53.3707 56.5485 52.816L56.1965 52.688C56.1752 52.688 56.1325 52.8693 56.0685 53.232C56.0258 53.68 56.1645 54.064 56.4845 54.384C56.6765 54.5973 56.8898 54.7467 57.1245 54.832L57.3485 54.896L60.1965 54.928C62.0098 54.928 63.1085 54.9493 63.4925 54.992C65.1138 55.1413 66.4045 55.5147 67.3645 56.112C68.5165 56.816 69.1885 57.968 69.3805 59.568C69.5085 60.6773 69.1885 61.6053 68.4205 62.352C67.1832 63.5467 65.1565 64.2293 62.3405 64.4C60.2498 64.5067 58.4685 64.3893 56.9965 64.048C54.5005 63.4293 53.0605 62.3627 52.6765 60.848C52.6125 60.6773 52.5805 60.496 52.5805 60.304C52.5165 59.1947 53.0818 58.32 54.2765 57.68C54.3618 57.6373 54.4472 57.5947 54.5325 57.552L54.7245 57.456L54.6285 57.296C54.0098 56.5067 53.7005 55.5893 53.7005 54.544C53.7005 53.6267 53.9672 52.7733 54.5005 51.984L54.6925 51.728L54.4365 51.472C54.1592 51.1947 53.9032 50.8427 53.6685 50.416C53.5192 50.0533 53.4018 49.7227 53.3165 49.424C53.2738 49.2107 53.2525 48.8907 53.2525 48.464C53.2525 48.0587 53.2738 47.7493 53.3165 47.536C53.5085 46.832 53.8392 46.192 54.3085 45.616C54.8205 44.9973 55.5672 44.5067 56.5485 44.144C57.5298 43.7813 58.6818 43.6 60.0045 43.6C61.5832 43.6 62.9058 43.856 63.9725 44.368L64.1965 44.496L64.4205 44.336C65.1458 43.8667 65.9672 43.5787 66.8845 43.472ZM60.6125 45.584C59.9512 45.4987 59.3858 45.5307 58.9165 45.68C58.3832 45.7867 58.0098 46.0427 57.7965 46.448C57.6472 46.8107 57.5725 47.4827 57.5725 48.464C57.5725 49.4667 57.6472 50.1493 57.7965 50.512C57.9245 50.832 58.2445 51.0773 58.7565 51.248C59.2045 51.4187 59.8445 51.4613 60.6765 51.376C61.2312 51.2907 61.6472 51.1093 61.9245 50.832C62.1592 50.6187 62.3085 50.2027 62.3725 49.584V47.376C62.3085 46.7573 62.1592 46.3413 61.9245 46.128C61.6258 45.8293 61.1885 45.648 60.6125 45.584ZM66.1165 45.744C66.1165 45.68 66.1272 45.616 66.1485 45.552L65.9245 45.616L65.7325 45.68L65.9885 46.032C66.1165 46.2667 66.1912 46.3947 66.2125 46.416C66.2338 46.416 66.2232 46.3413 66.1805 46.192C66.1378 45.9787 66.1165 45.8293 66.1165 45.744ZM62.7245 58.832H57.2845C56.8365 58.896 56.5058 59.12 56.2925 59.504C55.9085 60.2293 56.1218 60.9013 56.9325 61.52C57.0818 61.648 57.2525 61.7547 57.4445 61.84C58.0205 62.096 58.7245 62.288 59.5565 62.416C60.3032 62.5013 61.1885 62.512 62.2125 62.448C62.2978 62.4267 62.3725 62.416 62.4365 62.416C63.9085 62.224 64.9218 61.7973 65.4765 61.136C65.8178 60.7093 65.9352 60.3147 65.8285 59.952C65.7218 59.696 65.5512 59.504 65.3165 59.376C64.8258 59.0773 63.9618 58.896 62.7245 58.832ZM77.4188 43.536L80.0428 43.568C82.8374 43.888 84.6188 44.944 85.3868 46.736C85.4721 46.928 85.5361 47.12 85.5788 47.312L85.6748 47.664L85.7068 51.504C85.7068 54 85.7281 55.2907 85.7708 55.376C85.9414 55.5467 86.4001 55.6533 87.1468 55.696C87.4881 55.696 87.7334 55.7387 87.8828 55.824C88.0108 55.952 88.0748 56.2933 88.0748 56.848C88.0748 57.4027 88.0001 57.744 87.8507 57.872C87.6374 57.9573 86.9548 58 85.8028 58C84.5228 57.9787 83.6801 57.904 83.2748 57.776C82.6134 57.5627 82.1868 57.232 81.9948 56.784C81.9094 56.6133 81.8668 56.5173 81.8668 56.496C81.8668 56.4747 81.7708 56.528 81.5788 56.656C80.6401 57.4027 79.3814 57.8933 77.8028 58.128C76.9708 58.2133 76.3201 58.224 75.8508 58.16C73.9308 57.9467 72.5761 57.1573 71.7868 55.792C71.5948 55.472 71.4561 55.1413 71.3708 54.8C71.3068 54.5653 71.2747 54.2667 71.2747 53.904C71.2747 53.392 71.3601 52.9547 71.5308 52.592C71.7868 52.08 72.1388 51.6427 72.5868 51.28C73.3334 50.704 74.2828 50.256 75.4348 49.936C76.8428 49.5093 78.5174 49.2533 80.4588 49.168L81.2588 49.136V48.56L81.2268 47.728V47.696C81.0988 46.8 80.6614 46.1707 79.9148 45.808C79.4454 45.5733 78.8374 45.456 78.0908 45.456C77.2161 45.456 76.7574 45.4773 76.7148 45.52L76.8108 45.712C76.9814 46.0107 77.0561 46.3947 77.0348 46.864C77.0348 47.2053 77.0134 47.4507 76.9708 47.6C76.8428 47.984 76.6508 48.304 76.3948 48.56C76.1174 48.8373 75.7868 49.04 75.4028 49.168C75.2321 49.2107 74.9868 49.232 74.6668 49.232C74.3468 49.232 74.1121 49.2107 73.9628 49.168C73.5574 49.04 73.2161 48.8373 72.9388 48.56C72.6828 48.304 72.4908 47.984 72.3628 47.6C72.3201 47.4507 72.2988 47.2053 72.2988 46.864C72.2988 46.5227 72.3201 46.2773 72.3628 46.128C72.6828 44.9547 73.7174 44.176 75.4668 43.792C76.0428 43.664 76.6934 43.5787 77.4188 43.536ZM81.2588 52.592C81.2588 51.4827 81.2481 50.928 81.2268 50.928C81.2054 50.928 81.1521 50.9387 81.0668 50.96C79.8081 51.0453 78.7094 51.2693 77.7708 51.632C76.7681 52.0373 76.1388 52.6027 75.8828 53.328C75.7761 53.6267 75.7654 54.0107 75.8508 54.48C76.0641 55.3333 76.5548 55.888 77.3228 56.144C77.3654 56.1653 77.4188 56.1867 77.4828 56.208C78.2721 56.336 79.1041 56.176 79.9788 55.728C80.0428 55.7067 80.1068 55.6747 80.1708 55.632C80.5761 55.376 80.8641 55.088 81.0348 54.768C81.1628 54.512 81.2374 54.0853 81.2588 53.488V52.592ZM90.0138 44.048V43.792H96.1578C100.254 43.792 102.344 43.8133 102.43 43.856C102.643 44.048 102.76 44.3467 102.782 44.752C102.782 45.072 102.76 45.264 102.718 45.328C102.675 45.4347 101.342 47.216 98.7178 50.672L94.7818 55.888H96.7658C97.5124 55.824 98.1418 55.664 98.6538 55.408C99.5924 54.9387 100.168 53.9253 100.382 52.368C100.403 52.304 100.414 52.2507 100.414 52.208C100.52 51.7173 100.574 51.2373 100.574 50.768C100.574 50.7467 100.958 50.736 101.726 50.736H102.878V50.928C102.835 51.0773 102.739 52.2187 102.59 54.352C102.44 56.5067 102.344 57.6587 102.302 57.808V58H95.9338C91.6884 58 89.5338 57.9787 89.4698 57.936C89.2564 57.68 89.1391 57.3707 89.1178 57.008C89.1178 56.6667 89.1391 56.4533 89.1818 56.368C89.3311 56.1333 90.6751 54.3413 93.2138 50.992C95.8378 47.5573 97.1498 45.808 97.1498 45.744L94.7818 45.808C93.6724 46 92.9151 46.4907 92.5098 47.28C92.2324 47.792 92.0404 48.6667 91.9338 49.904V50.192H90.7818H89.6298V49.936L89.8218 46.992C89.9498 45.0507 90.0138 44.0693 90.0138 44.048ZM108.982 35.792C109.024 35.7707 109.216 35.76 109.558 35.76C109.92 35.8027 110.155 35.8347 110.262 35.856C111.094 36.112 111.691 36.6027 112.054 37.328C112.246 37.7333 112.342 38.128 112.342 38.512C112.342 38.9173 112.246 39.312 112.054 39.696C111.691 40.4427 111.094 40.944 110.262 41.2C110.07 41.2427 109.803 41.264 109.462 41.264C109.099 41.264 108.832 41.2427 108.661 41.2C107.808 40.944 107.2 40.4427 106.838 39.696C106.667 39.3547 106.582 38.96 106.582 38.512C106.582 38.2133 106.592 38 106.614 37.872C106.72 37.488 106.912 37.1253 107.19 36.784C107.638 36.2507 108.235 35.92 108.982 35.792ZM108.758 43.728C110.891 43.6427 111.915 43.6 111.83 43.6H112.022V49.648V55.696H113.014H114.006V56.848V58H113.718L111.67 57.936C110.496 57.9147 109.28 57.9147 108.022 57.936L105.846 58H105.558V56.848V55.696H106.678H107.766V51.312C107.766 48.3467 107.755 46.8213 107.734 46.736C107.648 46.48 107.51 46.3307 107.318 46.288C107.019 46.2027 106.592 46.16 106.038 46.16H105.654V45.008V43.856H105.75L108.758 43.728ZM118.752 43.728C120.843 43.6427 121.856 43.6 121.792 43.6H121.984V44.784V45.968L122.24 45.712C122.774 45.1573 123.414 44.7093 124.16 44.368C124.779 44.0267 125.504 43.792 126.336 43.664C126.87 43.5787 127.606 43.568 128.544 43.632C128.63 43.6533 128.704 43.664 128.768 43.664C130.411 43.856 131.52 44.5493 132.096 45.744C132.224 46 132.342 46.3947 132.448 46.928C132.491 47.1627 132.523 48.688 132.544 51.504V55.696H133.664H134.752V56.848V58H134.464L132.224 57.936C130.944 57.9147 129.664 57.9147 128.384 57.936C126.891 57.9787 126.155 58 126.176 58H125.888V56.848V55.696H127.008H128.096V51.696C128.096 48.9227 128.086 47.472 128.064 47.344C127.958 46.256 127.499 45.6587 126.688 45.552C126.539 45.552 126.368 45.552 126.176 45.552C125.152 45.616 124.278 46.0107 123.552 46.736C123.04 47.248 122.699 47.8133 122.528 48.432C122.4 48.7947 122.336 49.712 122.336 51.184C122.336 51.44 122.336 51.888 122.336 52.528V55.696H123.456H124.544V56.848V58H124.256L122.016 57.936C120.736 57.9147 119.456 57.9147 118.176 57.936C116.683 57.9787 115.947 58 115.968 58H115.68V56.848V55.696H116.8H117.888V51.28C117.888 48.336 117.867 46.8107 117.824 46.704C117.76 46.4907 117.622 46.352 117.408 46.288C117.11 46.2027 116.672 46.16 116.096 46.16H115.68V45.008V43.856H115.776C115.67 43.856 116.662 43.8133 118.752 43.728ZM143.254 43.536L145.398 43.568C146.912 43.7813 148.128 44.3147 149.046 45.168C150.112 46.2347 150.72 47.6853 150.87 49.52C150.934 50.3093 150.838 50.7893 150.582 50.96C150.496 51.0027 148.875 51.024 145.718 51.024H141.014V51.664C141.078 53.1573 141.376 54.2027 141.91 54.8C141.952 54.8427 142.006 54.896 142.07 54.96C142.688 55.5787 143.627 55.952 144.886 56.08C145.376 56.1227 145.782 56.112 146.102 56.048C147.254 55.8773 148.064 55.3013 148.534 54.32C148.555 54.256 148.576 54.2027 148.598 54.16C148.704 53.8827 148.875 53.7333 149.11 53.712C149.216 53.6907 149.43 53.68 149.75 53.68C150.219 53.68 150.496 53.7013 150.582 53.744C150.838 53.872 150.934 54.096 150.87 54.416C150.742 54.864 150.528 55.28 150.23 55.664C149.27 56.9867 147.766 57.808 145.718 58.128C145.12 58.2133 144.32 58.224 143.318 58.16C143.254 58.1387 143.19 58.128 143.126 58.128C139.67 57.68 137.462 56.0587 136.502 53.264C136.374 52.8373 136.267 52.3893 136.182 51.92C136.096 51.3227 136.096 50.6187 136.182 49.808C136.182 49.744 136.182 49.6907 136.182 49.648C136.416 48.2613 136.918 47.0987 137.686 46.16C137.963 45.776 138.368 45.392 138.902 45.008C140.075 44.1547 141.526 43.664 143.254 43.536ZM144.694 45.52C144.374 45.456 143.968 45.4453 143.478 45.488C142.518 45.6587 141.846 46.1387 141.462 46.928C141.248 47.376 141.11 48.0267 141.046 48.88V49.168H144.022H147.03L146.998 49.008C146.784 47.024 146.016 45.8613 144.694 45.52Z" fill="#F8F9FA"/>
</svg>
